<?xml version="1.0" encoding="UTF-8"?><svg id="Layer_2" xmlns="http://www.w3.org/2000/svg" viewBox="0 0 551.53 140.86"><defs><style>.cls-1{fill:#034422;}.cls-2{fill:#1eb720;}</style></defs><g id="Layer_1-2"><g id="Group_2"><path id="Path_1" class="cls-1" d="M354.53,44.32c9.64,0,16.23,6.09,18.09,16.91h-36.35c2.2-10.82,8.79-16.91,18.26-16.91Zm41.76,26.37c0-27.9-15.89-44.97-41.25-44.97s-43.62,17.58-43.62,43.28c0,27.22,18.77,44.8,48.18,44.8,12,0,23.33-3.04,31.78-8.45,1.29-.84,1.79-2.48,1.18-3.89l-4.91-12.34c-.85-2.37-3.04-3.04-5.24-1.86-6.63,3.45-14,5.25-21.47,5.24-13.86,0-23.33-6.26-25.02-15.72h56.97c1.87,0,3.38-1.52,3.38-3.38v-2.7Zm-141,21.64c-12,0-20.12-9.3-20.12-22.82s8.11-23.33,20.12-23.33,19.95,9.47,19.95,23.33-8.11,22.82-19.95,22.82h0Zm7.61-66.61c-10.55-.2-20.63,4.4-27.39,12.51V10.68c0-1.87-1.52-3.38-3.38-3.38h-17.92c-1.87,0-3.38,1.52-3.38,3.38V108.57c0,1.87,1.52,3.38,3.38,3.38h17.92c1.86,0,3.38-1.52,3.38-3.38v-7.78c6.65,8.41,16.84,13.22,27.55,13.02,22.32,0,38.21-18.09,38.21-44.29,0-26.04-15.89-43.79-38.38-43.79h0Zm-92.82,83.69c-8.11,20.46-21.3,31.45-38.21,31.45-2.84-.02-5.67-.3-8.45-.85-1.46-.36-2.46-1.71-2.37-3.21v-14.37c0-2.37,1.86-3.89,4.4-3.55,1.23,.14,2.48,.2,3.72,.17,8.45,0,13.7-3.72,15.22-10.82l-27.73-75.23c-1.02-2.87,.68-5.24,3.55-5.24h19.78c1.39-.03,2.64,.87,3.04,2.2l14.71,50.38,16.4-50.38c.4-1.34,1.65-2.24,3.04-2.2h19.44c2.12-.03,3.86,1.66,3.89,3.78,0,.56-.11,1.12-.34,1.63l-30.09,76.25ZM82.67,40.43c4.73-7.44,11.83-13.02,21.81-13.02,1.69,0,2.54,1.18,2.54,3.38v19.78c0,1.86-1.52,3.37-3.38,3.38h-8.28c-8.29,0-12.68,4.73-12.68,13.36v41.25c0,1.87-1.52,3.38-3.38,3.38h-17.75c-1.87,0-3.38-1.52-3.38-3.38V30.97c0-1.87,1.52-3.38,3.38-3.38h17.75c1.87,0,3.38,1.52,3.38,3.38v9.47ZM24.68,10.68V27.58h19.95c1.87,0,3.38,1.52,3.38,3.38v14.03c0,1.87-1.52,3.38-3.38,3.38H24.68v30.94c0,7.1,4.23,10.82,12.51,10.82,2.1,0,4.2-.22,6.26-.68,1.96-.5,3.95,.68,4.45,2.64,.09,.35,.13,.72,.11,1.08v13.86c0,1.59-1.14,2.95-2.7,3.21-5.18,1.01-10.44,1.58-15.72,1.69-18.09,0-29.59-9.98-29.59-25.36V10.68c0-1.87,1.52-3.38,3.38-3.38H21.3c1.87,0,3.38,1.52,3.38,3.38Z"/><g id="Group_1"><path id="Path_2" class="cls-2" d="M492.77,59.37h-57.15c-2.73,0-4.94-2.21-4.94-4.94,0-1.76,.94-3.39,2.47-4.28L518.88,.66c2.36-1.36,5.39-.55,6.75,1.81,.88,1.53,.88,3.41,0,4.94l-28.57,49.49c-.88,1.53-2.51,2.47-4.28,2.47Z"/><path id="Path_3" class="cls-2" d="M551.53,19.51V118.5c0,2.73-2.21,4.94-4.94,4.94-1.76,0-3.4-.94-4.28-2.47l-28.57-49.49c-.88-1.53-.88-3.41,0-4.94l28.57-49.49c1.36-2.36,4.39-3.17,6.75-1.81,1.53,.88,2.47,2.51,2.47,4.28Z"/><path id="Path_4" class="cls-2" d="M497.05,81.11l28.57,49.49c1.36,2.36,.56,5.38-1.81,6.75-1.53,.88-3.41,.88-4.94,0l-85.72-49.49c-2.36-1.37-3.17-4.39-1.81-6.75,.88-1.53,2.51-2.47,4.28-2.47h57.15c1.77,0,3.4,.94,4.28,2.47Z"/></g></g></g></svg>